<svg class="header-logo" xmlns="http://www.w3.org/2000/svg" width="171" height="65" viewBox="0 0 171 65" fill="none" version="1.1">

    <path d="M66.06 21.56c.13 1.38 1.01 2.62 3.32 2.62 2.1 0 2.9-.75 2.9-1.89s-.64-1.63-1.89-1.81l-3.6-.4c-2.98-.33-4.7-2.04-4.7-4.84 0-3.11 2.34-5.24 7.1-5.24 5.1 0 7.14 2.44 7.37 5.37h-4.33c-.18-1.32-1.16-2.18-3.03-2.18-1.69 0-2.7.67-2.7 1.76 0 .86.5 1.48 1.77 1.61l3.16.31c3.63.34 5.26 2.05 5.26 5.06 0 3.24-2.05 5.44-7.41 5.44-5.37 0-7.34-2.82-7.5-5.78h4.26l.02-.03zm25.67-11.15v3.45h-5.29v13.07h-4.4V13.86h-5.32v-3.45h15.01zm11.13 16.52l-1.07-3.1h-7.1l-1.06 3.1h-4.39l5.63-16.52h6.74l5.65 16.52h-4.4zm-7.06-6.4h4.88l-2.44-7.08-2.44 7.08zm26.48 3.42c0 1.35.15 2.05.3 2.98h-4.42c-.21-.67-.32-1.6-.32-2.98v-.67c0-1.59-1-2.34-2.43-2.34h-3.01v6h-4.44V10.4h9.16c3.73 0 5.55 1.92 5.55 4.57a4.3 4.3 0 0 1-3.58 4.38c1.71.36 3.16 1.25 3.16 3.68v.91h.03zM116 17.8c1.5 0 2.13-.7 2.13-2.1 0-1.3-.65-1.94-2.1-1.94h-3.58v4.04H116zm22.2-7.39v3.45h-5.3v13.07h-4.4V13.86h-5.31v-3.45h15zm1.01 0h4.4v9.68c0 2.88 1.04 3.68 3.3 3.68s3.32-.8 3.32-3.68V10.4h4.38v10.25c0 4.4-2.6 6.69-7.7 6.69s-7.67-2.26-7.67-6.7V10.42h-.03zM171 15.9c0 3.21-1.5 5.67-5.31 5.67h-4.83v5.4h-4.43V10.4h9.23c3.81 0 5.31 2.47 5.31 5.48h.03zm-6.8 2.28c1.59 0 2.21-.96 2.21-2.26 0-1.3-.6-2.12-2.15-2.12h-3.4v4.4h3.35v-.02zM83.19 29.06h4.3l-2.83 16.52h-7.44L74.7 32.56l-2.5 13.02h-7.4l-2.86-16.52h4.3l2.39 13.87 2.8-13.87h6.5L80.77 43l2.39-13.95h.03zm15.66 3.45h-2.9v9.62h2.9v3.45h-10.2v-3.45h2.91V32.5h-2.9v-3.45h10.19v3.45zm5.47 7.7c.13 1.37 1.01 2.62 3.32 2.62 2.1 0 2.9-.75 2.9-1.9 0-1.14-.65-1.63-1.9-1.81l-3.6-.39c-2.98-.34-4.69-2.05-4.69-4.85 0-3.11 2.33-5.24 7.1-5.24 5.09 0 7.14 2.44 7.37 5.37h-4.33c-.18-1.32-1.17-2.18-3.03-2.18-1.69 0-2.7.68-2.7 1.77 0 .85.5 1.47 1.76 1.6l3.17.32c3.63.33 5.26 2.04 5.26 5.05 0 3.24-2.05 5.45-7.42 5.45-5.36 0-7.33-2.83-7.49-5.79h4.25l.03-.02zm16.64 1.92h8.92v3.45h-13.3V29.06h13.23v3.45h-8.85v3.06h8.1v3.21h-8.1v3.35zM61.91 55.97c0-4.8 2.67-8.68 9.1-8.68 5.7 0 7.96 2.67 8.17 5.88H74.8c-.2-1.45-1.43-2.51-3.79-2.51-2.95 0-4.53 1.58-4.53 5.31 0 3.5 1.32 5.27 4.27 5.27 2.96 0 3.97-1.48 4.26-3.32h-5.34v-2.75h9.49v9.08H75.5V61.2c-.65 1.76-2.15 3.42-5.78 3.42-5.4 0-7.8-3.94-7.8-8.63v-.03zm19.11-8.27h4.41v9.67c0 2.88 1.04 3.69 3.3 3.69 2.25 0 3.31-.8 3.31-3.69V47.7h4.39v10.24c0 4.41-2.6 6.7-7.7 6.7-5.11 0-7.68-2.26-7.68-6.7V47.7h-.03zm28.47 0h4.85l-6.17 11.75v4.77h-4.4v-4.77L97.53 47.7h4.93l2.36 5.42c.39.94.78 1.87 1.09 2.8.33-.93.72-1.87 1.11-2.8l2.44-5.42h.02zm8.67 11.15c.13 1.38 1 2.62 3.31 2.62 2.1 0 2.9-.75 2.9-1.9 0-1.13-.64-1.63-1.89-1.8l-3.6-.4c-2.98-.33-4.7-2.04-4.7-4.84 0-3.12 2.34-5.24 7.11-5.24 5.08 0 7.13 2.43 7.37 5.36h-4.33c-.19-1.32-1.17-2.17-3.04-2.17-1.68 0-2.7.67-2.7 1.76 0 .86.5 1.45 1.77 1.6l3.16.32c3.63.34 5.27 2.05 5.27 5.06 0 3.24-2.05 5.44-7.42 5.44s-7.34-2.83-7.5-5.78h4.26l.03-.03z" fill="#fff"></path>

    <path d="M48.72 11.3L24.96 40.04c-1.24 2-4.3.96-4.1-1.37l.86-14.52c.2-2.26-2.75-3.32-4.04-1.45L7.05 40.05C5.83 41.85 3 40.96 3 38.78v-14" stroke="#fff" stroke-width="5.19" stroke-linejoin="bevel" class="swg-logo-line"></path>

    <path d="M23.77 55.25a4.15 4.15 0 1 0 0-8.3 4.15 4.15 0 0 0 0 8.3z" fill="#fff"></path>

    <path d="M13.24 55.25a4.15 4.15 0 1 0 0-8.3 4.15 4.15 0 0 0 0 8.3z" fill="#fff"></path>

    <path d="M32.72 12.07h13.27a2.6 2.6 0 0 1 2.6 2.6v13.27" stroke="#fff" stroke-width="5.19" stroke-miterlimit="10" class="swg-logo-arrow"></path>

    <path d="M34.06 50.97v5.47a5.2 5.2 0 0 1-5.18 5.19H8.18A5.2 5.2 0 0 1 3 56.44v-5.47" stroke="#fff" stroke-width="5.19" stroke-linejoin="round"></path>

    <circle cx="46.5" cy="13.5" r="2.5" fill="#fff"></circle>

</svg>

